<svg width="1024" height="1024" viewBox="0 0 1024 1024" fill="none" xmlns="http://www.w3.org/2000/svg">
<path d="M506.999 514.888C510.094 513.101 513.906 513.101 517.001 514.888L585.754 554.59C592.419 558.439 592.419 568.061 585.754 571.91L406.063 675.675C402.969 677.462 399.156 677.462 396.062 675.675L327.309 635.972C320.643 632.123 320.643 622.502 327.309 618.653L506.999 514.888Z" fill="black"/>
<path d="M216.371 700.035C209.706 696.186 209.706 686.564 216.371 682.715L285.124 643.013C288.219 641.226 292.031 641.226 295.126 643.013L474.816 746.778C481.482 750.627 481.482 760.248 474.816 764.097L406.063 803.8C402.969 805.587 399.156 805.587 396.062 803.8L216.371 700.035Z" fill="black"/>
<path d="M549.184 635.972C542.518 632.123 542.518 622.502 549.184 618.653L617.937 578.95C621.031 577.163 624.844 577.163 627.938 578.95L807.629 682.715C814.294 686.564 814.294 696.186 807.629 700.035L738.876 739.737C735.781 741.524 731.969 741.524 728.874 739.737L549.184 635.972Z" fill="black"/>
<path d="M438.246 700.035C431.581 696.186 431.581 686.564 438.246 682.715L506.999 643.013C510.094 641.226 513.906 641.226 517.001 643.013L585.754 682.715C592.419 686.564 592.419 696.186 585.754 700.035L517.001 739.737C513.906 741.524 510.094 741.524 506.999 739.737L438.246 700.035Z" fill="black"/>
<path d="M617.937 707.075C621.031 705.288 624.844 705.288 627.938 707.075L696.691 746.778C703.357 750.627 703.357 760.248 696.691 764.097L517.001 867.862C513.906 869.649 510.094 869.649 506.999 867.862L438.246 828.16C431.581 824.311 431.581 814.689 438.246 810.84L617.937 707.075Z" fill="black"/>
</svg>
